<svg width="82" height="24" viewBox="0 0 82 24" fill="none" xmlns="http://www.w3.org/2000/svg">
<g id="icon-adidas-paypal">
<g id="Vector">
<path d="M30.2172 14.1207C31.3607 14.1198 32.4661 13.7273 33.3342 13.014C34.2022 12.3007 34.7757 11.3136 34.9511 10.2307C35.321 7.97352 33.4806 6.00308 30.873 6.00308H26.6702C26.5914 6.0021 26.5149 6.02848 26.4547 6.07733C26.3946 6.12619 26.3549 6.19424 26.343 6.26892L24.47 17.6626C24.4632 17.7042 24.4659 17.7467 24.4779 17.7873C24.4899 17.8278 24.5109 17.8654 24.5394 17.8974C24.568 17.9294 24.6034 17.9551 24.6433 17.9728C24.6832 17.9905 24.7266 17.9997 24.7706 17.9998H26.9946C27.0732 18.0005 27.1495 17.974 27.2095 17.9252C27.2694 17.8764 27.3089 17.8085 27.3208 17.7339L27.8718 14.387C27.8836 14.3123 27.9232 14.2442 27.9832 14.1953C28.0433 14.1463 28.1197 14.1198 28.1986 14.1207H30.2172ZM32.0784 10.128C31.9409 10.9623 31.268 11.5772 29.9801 11.5772H28.3327L28.8321 8.54156H30.4496C31.782 8.54429 32.215 9.29729 32.0784 10.1303V10.128ZM44.5867 9.59177H42.4752C42.3964 9.59089 42.3199 9.6173 42.2598 9.66614C42.1996 9.71498 42.1599 9.78297 42.148 9.85761L42.0797 10.2775C42.0797 10.2775 40.4404 8.56201 37.5393 9.72083C35.8748 10.3848 35.0763 11.7567 34.7368 12.761C34.7368 12.761 33.657 15.8139 36.0977 17.4949C36.0977 17.4949 38.3601 19.1109 40.9084 17.3949L40.8643 17.6626C40.8575 17.7042 40.8601 17.7468 40.8721 17.7873C40.884 17.8279 40.905 17.8655 40.9336 17.8975C40.9622 17.9296 40.9976 17.9553 41.0376 17.973C41.0775 17.9906 41.121 17.9998 41.165 17.9998H43.2756C43.3544 18.0007 43.431 17.9744 43.4911 17.9255C43.5512 17.8767 43.5909 17.8086 43.6028 17.7339L44.8869 9.92896C44.8937 9.88734 44.891 9.8448 44.879 9.80427C44.867 9.76374 44.846 9.72618 44.8175 9.69415C44.7889 9.66212 44.7534 9.63639 44.7135 9.61872C44.6736 9.60105 44.6307 9.59185 44.5867 9.59177ZM41.4822 13.9053C41.3996 14.4491 41.1139 14.9457 40.6783 15.3031C40.2426 15.6604 39.6865 15.8542 39.1131 15.8485C38.8886 15.8509 38.665 15.8195 38.4507 15.7553C37.5402 15.4754 37.021 14.6365 37.1703 13.7276C37.253 13.1823 37.5398 12.6844 37.9773 12.3268C38.4148 11.9692 38.973 11.7763 39.5479 11.784C39.7727 11.7817 39.9965 11.8135 40.2109 11.8776C41.118 12.1566 41.6339 12.9955 41.4846 13.9053H41.4822Z" fill="#003087"/>
<path d="M60.6188 14.1207C61.7629 14.1204 62.8692 13.7282 63.7381 13.0149C64.6069 12.3015 65.1811 11.3141 65.357 10.2307C65.7264 7.97351 63.8865 6.00307 61.278 6.00307H57.0766C56.9979 6.0023 56.9215 6.02875 56.8615 6.07759C56.8015 6.12642 56.7619 6.19434 56.7499 6.26891L54.8711 17.6657C54.8604 17.7285 54.8715 17.7929 54.9028 17.849C54.9341 17.9051 54.9838 17.9498 55.0442 17.9761C55.0842 17.994 55.1277 18.0033 55.1718 18.0034H57.3962C57.475 18.0041 57.5514 17.9776 57.6115 17.9287C57.6715 17.8798 57.7111 17.8117 57.7229 17.7371L58.2744 14.3902C58.2861 14.3154 58.3256 14.2473 58.3857 14.1983C58.4458 14.1494 58.5223 14.1229 58.6011 14.1239L60.6188 14.1207ZM62.4801 10.128C62.3425 10.9623 61.6697 11.5772 60.3813 11.5772H58.7344L59.2342 8.54155H60.8517C62.1832 8.54428 62.6171 9.29728 62.4801 10.1303V10.128ZM74.9879 9.59176H72.8787C72.8 9.59099 72.7236 9.61745 72.6636 9.66628C72.6036 9.71511 72.564 9.78304 72.552 9.8576L72.4827 10.2775C72.4827 10.2775 70.8439 8.562 67.9428 9.72082C66.2788 10.3848 65.4798 11.7567 65.1398 12.761C65.1398 12.761 64.0606 15.8139 66.5008 17.4949C66.5008 17.4949 68.7636 19.1109 71.312 17.3949L71.2678 17.6626C71.2571 17.7253 71.2682 17.7898 71.2995 17.8459C71.3308 17.902 71.3805 17.9466 71.4409 17.9729C71.4808 17.9911 71.5244 18.0002 71.5685 18.0002H73.6791C73.758 18.0013 73.8347 17.975 73.8948 17.926C73.9549 17.877 73.9944 17.8087 74.0059 17.7339L75.2905 9.92895C75.2968 9.88719 75.2938 9.84462 75.2817 9.80404C75.2696 9.76346 75.2487 9.72581 75.2203 9.69355C75.1918 9.66122 75.1562 9.63533 75.116 9.61774C75.0758 9.60014 75.0321 9.59127 74.9879 9.59176ZM71.8838 13.9053C71.8022 14.4495 71.5168 14.9467 71.081 15.3042C70.6451 15.6617 70.0884 15.8552 69.5148 15.8485C69.2899 15.851 69.066 15.8196 68.8513 15.7553C67.9404 15.4754 67.4207 14.6365 67.5701 13.7276C67.6526 13.1837 67.9382 12.6869 68.3738 12.3295C68.8095 11.9721 69.3657 11.7782 69.9392 11.784C70.1644 11.7817 70.3882 11.813 70.6026 11.8776C71.5192 12.1566 72.0365 12.9955 71.8862 13.9053H71.8838Z" fill="#0070E0"/>
<path d="M52.3361 9.78506L49.7911 13.9018L48.4998 9.8155C48.4796 9.75066 48.438 9.69384 48.3812 9.65354C48.3244 9.61324 48.2556 9.59163 48.185 9.59192H45.8889C45.8493 9.59119 45.8102 9.59968 45.7748 9.61665C45.7394 9.63363 45.7088 9.65858 45.6856 9.68937C45.6625 9.72016 45.6475 9.75587 45.642 9.79343C45.6364 9.83099 45.6404 9.86929 45.6537 9.90503L47.9678 16.7879L45.8752 20.0317C45.8515 20.0674 45.8384 20.1086 45.8371 20.1508C45.8358 20.1931 45.8465 20.2349 45.868 20.2719C45.8894 20.3088 45.9209 20.3395 45.959 20.3608C45.9972 20.382 46.0406 20.393 46.0848 20.3925H48.5586C48.6294 20.3929 48.699 20.3755 48.7606 20.3422C48.8222 20.3089 48.8737 20.2608 48.91 20.2026L55.3742 9.95411C55.3975 9.91834 55.4103 9.87722 55.4113 9.83508C55.4122 9.79293 55.4013 9.75132 55.3796 9.71463C55.358 9.67793 55.3264 9.6475 55.2883 9.62655C55.2501 9.6056 55.2067 9.59489 55.1628 9.59556H52.6898C52.6187 9.59477 52.5486 9.61185 52.4866 9.64509C52.4245 9.67834 52.3726 9.7266 52.3361 9.78506Z" fill="#003087"/>
<path d="M77.3627 6.26566L75.4839 17.6625C75.4732 17.7253 75.4843 17.7897 75.5156 17.8458C75.5469 17.9019 75.5965 17.9465 75.657 17.9729C75.6968 17.991 75.7404 18.0001 75.7845 18.0001H78.008C78.0869 18.0011 78.1634 17.9746 78.2235 17.9257C78.2836 17.8767 78.3231 17.8086 78.3348 17.7338L80.214 6.337C80.221 6.29537 80.2184 6.25278 80.2065 6.21219C80.1945 6.17161 80.1735 6.13402 80.1448 6.10206C80.1161 6.07008 80.0806 6.04439 80.0407 6.02674C80.0008 6.00909 79.9573 5.99991 79.9134 5.99981H77.6894C77.6107 5.99904 77.5343 6.0255 77.4743 6.07433C77.4143 6.12316 77.3746 6.19109 77.3627 6.26566Z" fill="#0070E0"/>
<path d="M18.166 11.2071C17.689 13.8133 15.4702 15.7832 12.5587 15.7832H10.7103C10.3333 15.7832 9.95344 16.1177 9.89322 16.4876L9.08377 21.4114C9.03682 21.6918 8.89978 21.785 8.60341 21.785H5.6302C5.32956 21.785 5.25843 21.6887 5.30348 21.4046L5.6449 17.9995L2.07611 17.8228C1.77594 17.8228 1.66735 17.666 1.71003 17.3788L4.14502 2.58229C4.19197 2.3019 4.37406 2.18148 4.66948 2.18148H10.8449C13.8177 2.18148 15.6983 4.0992 15.9283 6.58588C17.6971 7.73106 18.5236 9.25525 18.166 11.2071Z" fill="#001C64"/>
<path d="M6.54971 12.4864L5.6449 17.9995L5.07354 21.4592C5.06292 21.5259 5.0674 21.594 5.0867 21.6589C5.10599 21.7238 5.13964 21.7839 5.18535 21.8352C5.23106 21.8865 5.28776 21.9278 5.3516 21.9562C5.41544 21.9847 5.48492 21.9996 5.55532 22H8.69544C8.83877 21.9998 8.97734 21.9507 9.08625 21.8614C9.19516 21.7721 9.26726 21.6485 9.28961 21.5128L10.1161 16.4868C10.1386 16.3512 10.2107 16.2277 10.3196 16.1385C10.4285 16.0493 10.567 16.0002 10.7103 16.0001H12.5587C13.9672 15.9983 15.3287 15.5144 16.3978 14.6356C17.4668 13.7568 18.1732 12.5409 18.3894 11.2071C18.7095 9.24985 17.6819 7.46801 15.9231 6.58776C15.9192 6.79629 15.9001 7.00432 15.8662 7.21034C15.6492 8.54344 14.9426 9.75846 13.8737 10.6366C12.8048 11.5147 11.4439 11.9983 10.036 12.0001H7.1434C7.00024 12.0002 6.8618 12.0492 6.75297 12.1383C6.64414 12.2274 6.57206 12.3508 6.54971 12.4864Z" fill="#0070E0"/>
<path d="M5.6449 17.9995L1.98841 17.9998C1.91787 17.9995 1.84822 17.9846 1.78423 17.9561C1.72024 17.9277 1.6634 17.8864 1.61758 17.8349C1.57177 17.7835 1.53806 17.7233 1.51874 17.6582C1.49943 17.5932 1.49498 17.525 1.50568 17.4581L3.9696 2.48716C3.99175 2.35148 4.06374 2.22784 4.17259 2.13853C4.28144 2.04921 4.41999 2.00008 4.56329 2H10.8416C13.8144 2 15.9758 4.07314 15.925 6.58482C15.1338 6.19363 14.2551 5.9929 13.3648 5.99996H8.13066C7.98733 5.99999 7.8487 6.04902 7.7397 6.13823C7.6307 6.22744 7.55848 6.35099 7.53602 6.48666L6.54971 12.4864L5.6449 17.9995Z" fill="#003087"/>
</g>
</g>
</svg>
