<svg width="51" height="24" viewBox="0 0 51 24" fill="none" xmlns="http://www.w3.org/2000/svg">
<g id="icon-adidas-visa">
<path id="Vector" d="M32.9155 5C29.4363 5 26.3271 6.59021 26.3271 9.52823C26.3271 12.8976 31.8414 13.1303 31.8414 14.8229C31.8414 15.5356 30.9151 16.1737 29.3331 16.1737C27.088 16.1737 25.41 15.2822 25.41 15.2822L24.692 18.247C24.692 18.247 26.625 19 29.1915 19C32.9953 19 35.9885 17.3317 35.9885 14.3435C35.9885 10.7831 30.4514 10.5573 30.4514 8.98628C30.4514 8.4279 31.2117 7.81619 32.7891 7.81619C34.5689 7.81619 36.0211 8.46453 36.0211 8.46453L36.7238 5.60107C36.7238 5.60107 35.1437 5 32.9155 5ZM1.08427 5.21613L1 5.64835C1 5.64835 2.46372 5.88455 3.78201 6.35578C5.4794 6.89608 5.60036 7.21066 5.88622 8.18763L9.00132 18.7771H13.1773L16.3939 11.9966L19.6105 5.21613H15.4442L11.3105 14.4363L9.62366 6.62083C9.46896 5.72638 8.68535 5.21613 7.72619 5.21613H1.08427ZM21.2859 5.21613L18.0175 18.7771H21.9904L25.2473 5.21609L21.2859 5.21613ZM43.4442 5.21613C42.4862 5.21613 41.9786 5.66842 41.6061 6.45876L35.7855 18.7771H39.9519L40.7579 16.724H45.8337L46.3239 18.7771H50L46.7929 5.21613H43.4442ZM43.986 8.87988L45.221 13.9686H41.9125L43.986 8.87988Z" fill="#1434CB"/>
</g>
</svg>
